<?xml version="1.0" encoding="UTF-8"?>
<svg version="1.1" viewBox="0 0 1600 1476" width="440" height="406" xmlns="http://www.w3.org/2000/svg">
<path transform="translate(0)" d="m0 0h1600v1476h-1600z" fill="#FCFDFC"/>
<path transform="translate(775,446)" d="m0 0h31l23 2 27 5 33 11 22 10 14 8 15 9 13 9 14 11 10 9 8 7 11 11 7 8 11 14 10 14 11 18 12 23 11 27 7 23 5 21 3 13 3 39v21l-3 38-6 30-6 21-3 9-8 19-8 16-9 16-8 12-14 19-12 14-12 13-8 8-8 7-18 14-17 11-8 4h-2v2l-17 9-28 12-22 7-28 6-27 4h-46l-29-4-25-6-23-8-15-6-17-8-20-12-16-11-14-11-14-12-21-21-13-17-8-11-12-19-11-19-8-19-8-25-6-24-6-37-2-19v-42l3-26 5-23 6-20 8-21 12-25 14-24 13-17 8-10 12-14 10-10 8-7 10-9 17-13 15-10 18-10 25-12 27-10 21-5 29-5z" fill="#1BA269"/>
<path transform="translate(775,469)" d="m0 0 30 3 24 3 24 5 27 9 15 7 16 8 15 9 17 12 14 12 13 12 8 8 5 6 6 6 1 3 3 3 13 19 2 5h2l1 5h2l6 12v2h2l5 10 5 13 4 9 8 28 4 18 2 22 1 5 1 14v21l-3 31-3 19-6 24-5 15-8 18-8 15-4 7-13 19-10 13-10 11-7 8-10 10-11 9-13 10-15 10-17 10-16 8-23 9-25 7-15 3-20 3-13 1h-30l-30-5-25-7-20-8-23-12-15-10-14-11-15-14-8-8-9-11-11-15-12-20-8-15-9-23-4-13-4-22-1-12v-23l4-28 7-32 8-24 9-21 10-17 10-14 11-12 7-7 8-7 13-10 17-10 18-8h2l3-9 8-17 6-22 3-16 4-4 16-4 40-4h19l29 5 17 4 21 7 6 3-1 4-1 6 6 9 3-1-1-8-2-3v-3l5 1 2 2 2 20 2 4v7l-1 2-10 1-5-2-11-11-6-3-5 1-4 6-3 11-5 12-5 9-5 4-4 1h-12l-1-3 4-8h-6l-2 10-7-1-3-7h-1v9l2 2 8 2v4l3-3 8-1-1 10-1 11-5 2-6-2v-3l-3 3v9l6 11 5-2 5-7 5-3h6l6 5 3 9h2l1-2v-10l-3-6v-3h3l5 9 4 11v3l6-4-1-6-5-10-4-5 4-1 10 14 5 1 3-6h9l8 5v2l3-2h5v3l-11 1-2 1-9 1-1 1-7 1-3 5h-2v2h8l4 5 1 4 7 2h10l2 1-1 13-3 5-7-1-9-3-3-3-11-4-2-1-1 2-8-1-6-3-1-7-7-3-1-6-9 4h-6l-3-4-3-1-2 5-3 3v6l1-1h5v4h-8l-5 1-2 5-3 3-11 3-3 9-1 5v10l-3 11v17l-5 10 2 5 6 10 4 6 4 1 19-2h12l3 2 1 4 1 14 3 10 1 21 1 12-4 11 3 9 4 9 1 11v10l4 5v2l4 1h7l12-4 6-5 8-13 5-16 2-2 8-3 2-2v-21l4-9 1-12 7-11 10-10 10-15 2-5 1-17-7 1 5-5 11-7 2 2-2 5-2 4 1 8-1 5 2 9-1 13-3 15-2 12-3 25h-2l1 6 2 17 4-1 5-3-1 4-9 10-14 14-19 13-16 9-18 8-20 7-19 4-21 2h-12l-22-3-19-4-15-5-23-11-12-8-10-8-10-9-10-10-11-14-8-11-5-10 1-5 5-1 6-14 4-9 4-3 5-2 2-6v-24l-8-4-6-5-1-11-11-7-1-2-2-26v-30l2-2-1-7-3-6h-2l-11 25-11 28-5 16-3 18v21l4 26 6 24 8 24 9 20 10 19 10 15 11 15 12 14 20 20 19 14 19 12 21 11 18 7 18 5 15 3h33l32-6 18-5 25-10 19-10 20-13 16-12 12-11 20-20 13-17 12-18 11-19 8-19 8-24 6-26 3-23 1-14v-16l-2-27-4-25-5-20-8-23-11-25-10-17-15-22-9-11-12-14-7-7-11-9-13-11-24-16-18-10-21-9-27-9-12-3-28-4-12-1h-24l-30 5-23 6-20 7-21 10-24 14-14 9-13 10-12 11-8 7-9 10-14 17-10 15-10 17-11 22-8 20-5 15-6 27-5 36-2 46-1 5h-2l-4-15-2-20v-21l3-29 5-25 5-16 10-25 11-23 13-21 10-14 13-16 15-16 14-13 16-12 21-14 16-9 16-8 20-8 25-7 19-4z" fill="#D2F3FE"/>
<path transform="translate(775,446)" d="m0 0h31l23 2 27 5 33 11 22 10 14 8 15 9 13 9 14 11 10 9 8 7 11 11 7 8 11 14 10 14 11 18 12 23 11 27 7 23 5 21 3 13 3 39v21l-3 38-6 30-6 21-3 9-8 19-8 16-9 16-8 12-14 19-12 14-12 13-8 8-8 7-18 14-17 11-8 4h-2v2l-17 9-28 12-22 7-28 6-27 4h-46l-29-4-25-6-23-8-15-6-17-8-20-12-16-11-14-11-14-12-21-21-13-17-8-11-12-19-11-19-8-19-8-25-6-24-6-37-2-19v-42l3-26 5-23 6-20 8-21 12-25 14-24 13-17 8-10 12-14 10-10 8-7 10-9 17-13 15-10 18-10 25-12 27-10 21-5 29-5zm0 23-36 5-28 7-21 7-22 10-21 12-16 11-12 9-10 8-13 12-7 7-7 8-13 16-14 21-11 19-9 19-9 23-5 16-5 25-3 29v21l2 20 4 15h2l1-5 2-46 5-36 6-27 8-23 9-20 13-25 12-18 13-16 7-8 11-12 11-9 9-8 17-12 27-15 16-8 14-6 19-6 21-5 32-5 6 42 1 2h-19l-40 4-16 4-4 4-5 24-5 16-10 22v2l-9 3-16 8-12 7-14 11-16 15-10 11-12 18-8 14-10 24-7 23-6 28-4 28v23l2 19 5 22 8 22 8 16 8 15 9 14 10 13 12 14 13 13 11 9 13 10 20 12 23 11 21 7 20 5 25 4h30l20-2 24-4 22-6 15-5 19-8 16-8 21-13 19-14 10-9 8-7 10-10 7-8 12-15 13-19 5-7 8-16 7-15 6-17 6-23 3-15 3-26 1-13v-21l-1-14-2-18-2-13-6-25-5-17-4-9-7-17-3-6h-2l-2-7-3-4-1-3h-2l-1-5h-2l-2-5-13-19-3-3-1-3-8-8-11-12-8-8-8-7-11-9-20-14-21-12-22-10-27-9-29-6-42-4z" fill="#FDB443"/>
<path transform="translate(613,668)" d="m0 0 4 2 3 8-1 5-1 1v30l2 26 4 4 8 5 1 11 8 6 6 3v24l-3 7-8 4-4 9-4 10-3 5-5 1 1 7 10 16 8 9 8 10 13 13 17 13 16 9 17 8 21 6 23 4 10 1h12l27-3 17-4 21-8 21-10 17-11 12-9 13-13 8-9-1-1-3 1-1 2-3-1-3-17-1-4 1-2h2v-10l3-19 3-20 1-3 1-16-2-6 1-8-1-6h2l-1-3 2-1 1-4h-3-3l12-12 4-5 3-2 3-7v-12l-17-2-2-4v-3l12 2h7l2-5 12-1 1-1h7l4 3-9 3-3 2 9 4 7 3 4 25 6 29v2l4-4 6-23 6-12 5-12 4 1 4 10 4 15 3 32v21l-3 14-10 30-2 4v4h8l14-8 13-6h2l2-5 2-2-1 7-8 24-10 22-13 21-8 11-10 13-9 10-22 22-17 13-20 13-18 10-21 9-18 6-23 5-17 3h-33l-23-5-18-6-18-8-20-11-12-8-16-12-10-9-18-18-9-11-13-18-12-20-12-25-8-22-6-23-4-19-2-15v-21l4-22 9-25 13-31z" fill="#0CA3DC"/>
<path transform="translate(474,232)" d="m0 0h20l17 3 16 5 20 9 13 9 10 9 12 13 6 10 8 16 7 21 3 14 1 19-3 24-5 17-7 16-9 15-9 11-15 15-15 10-16 7-26 9-6 3-4 5-1 4v23l-4-2-7-6v-2h-2l-9-14-5-10v-2l-5-2-18-6-14-7-12-8-11-9-12-12-11-15-10-19-6-18-2-12v-24l2-17 6-21 6-13 8-14 9-11 9-10 11-9 14-9 15-7 16-5z" fill="#0DA3DC"/>
<path transform="translate(1054,208)" d="m0 0h10l20 3 15 5 16 8 14 10 15 15 10 15 8 17 4 14 2 16v18l-3 21-5 16-8 17-8 11-7 9-8 7-11 8-10 6-18 8-21 5-15 1-11 16-9 9-12 6-13 3h-6l4-4 10-8 7-10 2-5 1-11-5-4-21-10-14-10-13-12-9-11-8-14-7-21-2-15v-24l4-22 6-16 8-15 7-10 12-14 12-10 17-9 15-5 16-3z" fill="#9E6CAD"/>
<path transform="translate(766,123)" d="m0 0h22l16 3 15 5 16 8 10 7 10 9 9 10 9 15 7 16 4 16 2 12v24l-3 17-4 12-8 16-7 11-12 13-10 8-13 8-16 7-11 4-4 5-4 6-2 1h-13l-10-4-5-5-15-4-21-8-11-6-14-11-12-13-10-15-7-16-5-19-1-6v-28l3-16 6-17 9-17 10-13 11-11 13-9 19-9 19-5z" fill="#FDB443"/>
<path transform="translate(775,446)" d="m0 0h31l23 2 27 5 33 11 22 10 14 8 15 9 13 9 14 11 10 9 8 7 11 11 7 8 11 14 10 14 11 18 12 23 11 27 7 23 5 21 3 13 3 39v21l-3 38-6 30-6 21-3 9-8 19-8 16-9 16-8 12-14 19-12 14-12 13-8 8-8 7-18 14-17 11-8 4h-2v2l-17 9-28 12-22 7-28 6-27 4h-46l-29-4-25-6-23-8-15-6-17-8-20-12-16-11-14-11-14-12-21-21-13-17-8-11-12-19-11-19-1-5 10-7 13-9 11-8 10-7 2 1 7 20 9 20 12 21 9 13 11 14 12 13 8 8 11 9 13 10 20 12 23 11 21 7 20 5 25 4h30l20-2 24-4 22-6 15-5 19-8 16-8 21-13 19-14 10-9 8-7 9-9 7-8 12-15 13-19 5-7 8-16 7-15 6-17 6-23 3-15 3-26 1-13v-21l-1-14-2-18-2-13-6-25-5-17-4-9-7-17-2-3v-3h-2l-4-8-2-3v-3h-2l-1-5h-2l-7-11-9-13v-2l-3-1v-3l-3-1-1-4-4-2-12-13-7-7-8-7-11-9-20-14-21-12-22-10-27-9-29-6-42-4-8-2v-22z" fill="#04499D"/>
<path transform="translate(689,711)" d="m0 0h5l15 11 11 7 2 3v3l7-5 7 1 5 4h13v8l-5 10 2 5 6 10 4 6 4 1 19-2h12l3 2 1 4 1 14 3 10 1 21 1 12-4 11 3 9 4 9 1 11v10l4 5v2l4 1h7l12-4 6-5 8-13 5-16 2-2 8-3 2-2v-21l4-9 1-12 7-11 10-10 10-15 2-5 1-17-7 1 5-5 11-7 2 2-2 5-2 4 1 8-1 5 2 9-1 13-3 15-2 12-3 25h-2l1 6 2 17 4-1 5-3-1 4-9 10-14 14-19 13-16 9-18 8-20 7-19 4-21 2h-12l-22-3-19-4-15-5-23-11-12-8-10-8-10-9-10-10-11-14-8-11-5-10 1-5 5-1 6-14 4-9 4-3 5-2 2-6v-24l-8-4-1-5 6 1 5 1 8-7 10-13 10-15 11-14z" fill="#FBFDFC"/>
<path transform="translate(345,627)" d="m0 0h13l19 3 15 6 14 8 9 7 12 12 9 14 5 12 4 15 2 22-1 16-6 21-8 16-8 11-13 12-8 6h-2l5 13 5 9 1 3-4-2-8-16-1-3-6 2-10 4-15 4-9 1h-14l-14-3-12-4-17-9-10-8-10-9-9-12-8-16-4-13-3-21v-11l3-19 7-19 9-16 11-12 11-8 17-9 16-5z" fill="#F98A46"/>
<path transform="translate(1191,596)" d="m0 0h25l16 3 14 6 14 9 10 9 8 9 7 11 7 14 5 18 1 7v19l-5 22-9 19-8 10-6 7-11 9-11 7-17 8-14 4-7 1h-17l-2 2-4 1-7 28-5 16-1-3 6-26 2-13v-5l-21-9-14-9-12-11-8-10-7-11-8-20-3-13v-25l2-12 6-16 6-11 8-11 12-12 16-11 15-7 10-3z" fill="#57A7B7"/>
<path transform="translate(1132,927)" d="m0 0 3 1-2 10-11 26-14 26-11 18-11 16-14 18-9 10-7 8-21 21-8 7-16 13-16 12-17 11-19 11-24 12-27 11-33 11-20 5-21 4-23 3-33 1-36-2-31-4-29-6-27-8-28-11-23-11-18-10-22-14-17-13-11-9-11-10-8-7-12-12-9-11-9-10-9-11-12-16-13-20-8-14-9-17-12-28-2-9 5-1 8 16 12 18 13 18 9 11 9 10 12 13 16 15 17 14 16 12 17 12 20 12 23 13 28 13 29 11 24 7 28 6 28 4 34 3h31l37-4 28-5 23-6 21-7 31-13 22-11 17-10 18-12 16-12 14-11 10-9 8-7 13-12 17-17 9-11 11-13 12-16 11-15 8-13z" fill="#0DA3DC"/>
<path transform="translate(775,469)" d="m0 0 30 3 24 3 24 5 27 9 15 7 16 8 15 9 17 12 14 12 13 12 8 8 5 6 6 6 1 3 3 3 13 19 2 5h2l1 5h2l6 12v2h2l5 10 5 13 4 9 8 28 4 18 2 22 1 5 1 14v21l-3 31-3 19-6 24-5 15-8 18-8 15-4 7-13 19-10 13-10 11-7 8-10 10-11 9-13 10-15 10-17 10-16 8-23 9-25 7-15 3-20 3-13 1h-30l-30-5-25-7-20-8-23-12-15-10-14-11-15-14-8-8-9-11-11-15-12-20-8-15-9-23-4-13-4-22-1-12v-23l4-28 7-32 8-24 9-21 10-17 10-14 11-12 7-7 8-7h3l-7 12h-2l-2 6-8 16-5 13-9 20-11 28-5 16-3 18v21l4 26 6 24 8 24 9 20 10 19 10 15 11 15 12 14 20 20 19 14 19 12 21 11 18 7 18 5 15 3h33l32-6 18-5 25-10 19-10 20-13 16-12 12-11 20-20 13-17 12-18 11-19 8-19 8-24 6-26 3-23 1-14v-16l-2-27-4-25-5-20-8-23-11-25-10-17-15-22-9-11-12-14-7-7-11-9-13-11-24-16-18-10-21-9-27-9-12-3-28-4-12-1h-24l-30 5-23 6-20 7-21 10-24 14-14 9-13 10-12 11-8 7-9 10-14 17-10 15-10 17-11 22-8 20-5 15-6 27-5 36-2 46-1 5h-2l-4-15-2-20v-21l3-29 5-25 5-16 10-25 11-23 13-21 10-14 13-16 15-16 14-13 16-12 21-14 16-9 16-8 20-8 25-7 19-4z" fill="#F7FCFC"/>
<path transform="translate(763,447)" d="m0 0h11l1 23-36 5-28 7-21 7-22 10-21 12-16 11-12 9-10 8-13 12-15 16-10 13-10 14-15 25-10 21-9 23-5 16-5 25-3 29v21l2 20 3 15h2v-5h1l2-33 2-2 3 13 2 9 2 4 7-1 4-2h3l1-5h2l1-2 5 5 2 6 1 13v23l2 19 3 15-1 4-11 8-14 10-15 10-5 2-7-17-7-22-6-24-6-37-2-19v-42l3-26 5-23 6-20 8-21 12-25 14-24 13-17 8-10 12-14 10-10 8-7 10-9 17-13 15-10 18-10 25-12 27-10 21-5 29-5z" fill="#FC9E38"/>
<path transform="translate(345,627)" d="m0 0h13l19 3 15 6 14 8 9 7 12 12 9 14 5 12-1 4-1 3-4 1-7-1-4 1-7 1-3 1h-7l-6 4-7 2-7 1-3-2-1 50-3 17-5 4-6 2h-7l-2-1-1-5h-2v5l-5 1-5-2h-6l-3 2-15-1-5-6-2-5-1-14-1-68-7 2-9-1-6-2-5 1-3 1-7-8-4-4 2-5 4-6 9-10 11-8 17-9 16-5z" fill="#FD9F62"/>
<path transform="translate(1039,247)" d="m0 0 38 1 12 2 10 5 5 4 6 9 2 6v12l-3 12-6 11-3 5-1 47-4 10-8 7-5 2-8 1h-42l-14-3-8-5-7-8-2-5-1-7v-71l2-12 5-9 8-8 13-5z" fill="#9F6CAC"/>
<path transform="translate(873,648)" d="m0 0h2v5h-3v4l-2 2v1h-6l-3-2 1 1 1 4-1 2h-3v2l4 1v4l7 1 2 1v13l-2 7h-2l2 9 2 3 1 10 3 7v3h2l3 6 2 8 6 12-1 2-5-6-12-21-1-3-9-1h-4l-1 5 1 11-2 23v10l-2 4-5-6v-11l-2-1-3 9-5 2-2 6-3 15v7l-2 15-3 13-1 5v8l1 7-2 8-5 5-3 2-2 7-5 9h-1l-3-14-6-13 2-8 2-5-1-12-1-21-3-10-1-14-1-4-2-1h-12l-20 2-4-2-6-10-6-9 3-9 2-3v-17l3-11v-12l5-12 12-5 4-6 5-2h8v-2l-5-1-1 2-1-5 2-5 3-3 1-2 4 1 2 3 9-1 6-2 1 6 7 2 2 8 13 4 1-3 9 4 5 2 4 3 10 3 5-1 3-16h-12l-7-3-5-8h-9l1-3 2-1 3-5 7-1 1-1 9-1 2-1 11-1z" fill="#2EB68B"/>
<path transform="translate(563,849)" d="m0 0 2 1 7 20 9 20 12 21 9 13 11 14 12 13 8 8 11 9 13 10 20 12 23 11 21 7 20 5 25 4 13 1-3 1 1 3v28h-19l-29-4-25-6-23-8-15-6-17-8-20-12-16-11-14-11-14-12-21-21-13-17-8-11-12-19-11-19-1-5 10-7 13-9 11-8z" fill="#9E6CAD"/>
<path transform="translate(923,1206)" d="m0 0h12l15 3 14 6 10 9 6 10 4 12 1 7v8l-4 17-6 11-8 7-10 6-11 4-15 2-17-1-12-4-10-6-9-8-6-9-4-11v-25l5-12 6-8 9-8 12-6z" fill="#020202"/>
<path transform="translate(1016,1208)" d="m0 0h35l12 36 6 24 1 5 2-4 5-21 13-40h39l4 26 8 67v5h-29l-4-50-1-21-2 2-5 18-8 21-7 19-3 10h-24l-3-5-14-43-6-21h-1l-2 35-5 34-1 1h-23l1-11 5-39 6-42z" fill="#020202"/>
<path transform="translate(506,1208)" d="m0 0h28l12 2 13 5 9 7 7 10 4 11v28l-4 10-6 9-10 7-11 5-13 3-10 1h-42l-1-1-1-96z" fill="#020202"/>
<path transform="translate(865,550)" d="m0 0 7 1 11 6 12 8 9 7 10 9 3 3v2h2l4 8 3 3v2h2l2 4-5 2h-4l-1 5h-4l-2 4h-3l-1 3-4 2-12 3 2 10-1 1h-5l-2-2-3-7-2-5-11-1-4 1-1 6 2 7h-4l-3-4-4 1 1 7 5 8 9 2v2l-8 2v-2l-6-2-4-2h-7l-3 6h-5l-7-10-3-5h-3l6 8 4 10-1 4-4 3h-2l-7-18-2-5h-3l4 9v10l-2 3-3-1-3-9-5-4h-6l-5 2-2 4-5 5-4 1-6-12v-9l2-3h2l1 3 7 1 2-1 1-16 2-5-9 3-3 2 1-5-8-1-3-3v-9h3l2 4v3l7 1 2-10h6l-1 5-2 5h12l7-3 5-7 5-14 3-8 3-7 3-4 5-1 7 4 11 11 7 1h7v-9l-2-4-1-9z" fill="#2EB68B"/>
<path transform="translate(787,1317)" d="m0 0 7 1 2 2v8l-4 13-4 17-2 7v12l4-1 5-14 8-7 3-1h14l5 8v2l4-2 4-5 5-3h11l7-1 3 5-3 3-3 11v6l5-2 6-5 2-8v-3l-6-2 3-2 3-1v-8l-1-6 2-2 12-2 2-5-3-6v-5l5-2 4 1 1 2-1 9-9 13-1 11 10-2 2 2h19l-1 5-3 7v9l1 7-2 1h-6l-3-3-1-4 2-16-4-2v-2l-10 5-4 7-3 10 9-5h6l1 3-5 5-5 2h-7l-6-2-3-5-7 6-2 1h-7l-2-3v-5l-9 7-2 1h-10l-4-4-2-3-7 6-2 1h-13l-2-4-4 1-3 2h-6l-3-7v-4l-5 5-6 5-4 2h-8l-3-7v-4l-9 9-4 2h-5l-4-5 1-9 1-6-9 12-6 7h-5l-3-4-1-7-4 2-8 10h-6l-3-4-1-6h-3l-2 4-8 6-5-2-3-4v-10l3-9-5 3-8 13-2 8-5 1-4-4 1-12 1-7-4 4-6 7-2 8-4 4-6-1v-6l2-7-5 3-4 6-9 5h-9l-4-2-2-5v-12l3-6 7-6h10l5 5 1 5-1 7 4-2 2-3 1-11 1-1h6l2 1 1 10 5-5 4-5 2-1h6l2 9v3l6-8 3-3 7-1 6 7v2h2l2-5 3-4 4-1 5 3 2 7h2l2-6 4-3 4 1-2 6-7 11-1 5 5-1 2-4 3-1 2-5 2-3-1-5 5-3 1-1h7v10l-3 8v4l4-5 6-9 7-8h4l2 5-1 12-2 8 5-3 3-5 3-12 3-5 7 1 1 4-2 14 1 6 5-1 5-5 3-4v-8l-2-2 3-24 3-10 4-5z" fill="#020202"/>
<path transform="translate(911,738)" d="m0 0 3 2-2 5-2 4 1 8-1 5 2 9-1 13-3 15-2 12-3 25h-2l1 6 2 17 4-1 5-3-1 4-9 10-14 14-19 13-16 9-18 8-20 7-19 4-21 2h-12l-10-1v-1l39-1v-3l-10 2 2-6 4-7h2l2-4 7-10 4-4 1-3 2-1 2-4 4 7 1 3 4 1h7l12-4 6-5 8-13 5-16 2-2 8-3 2-2v-21l4-9 1-12 7-11 10-10 10-15 2-5 1-17-7 1 5-5z" fill="#90D7F0"/>
<path transform="translate(944,688)" d="m0 0h7l4 3-9 3-3 2 9 4 7 3 4 25 6 29-1 3-4-10-3-1v9l-2 3-4 16-5 16-2 5h-2l-5 7-2 5-2 1 2 6-9 17-7 11-9 12h-3l-3 1-1 2-3-1-3-17-1-4 1-2h2v-10l3-19 3-20 1-3 1-16-2-6 1-8-1-6h2l-1-3 2-1 1-4h-3-3l12-12 4-5 3-2 3-7v-12l-17-2-2-4v-3l12 2h7l2-5 12-1z" fill="#56A7B6"/>
<path transform="translate(656,1206)" d="m0 0h26l1 4-1 67-3 10-6 9-9 6-10 4-4 1h-23l-9-3-9-5-5-4-6-10-2-5-1-7v-18l1-48h29v65l2 10 4 4 5 1 13-1 4-4 2-6z" fill="#020202"/>
<path transform="translate(797,166)" d="m0 0h11l9 2 12 6 8 6 5 8 2 7v9l-2 12-6 12-6 8-7 5 3 3-1 4h-2l-2 4-2 2h-7l-6-4-3-4-1-6 3-7v-17l-4-6-9-6h-17l-2-1v-2l6-2h18l7 4 6 7 1 2v18l14-14 3-6v-11l-5-8-8-7-8-2h-10l-11 1 2-3 10-3h13l12 6 7 7 3 7v13l-5 10-12 13-7 6v6l5 4 5-1 1-4-6-2 16-16 8-16v-18l-5-8-8-7-9-4-5-1h-16l-13 4-9 6h-2l-2 4-3 7v44l2 4 20 12-1-28-1-5h-9l-1-4 2-2h8l4 4 2 11v16l-1 20-4 6-1 10-1 1h-21l-27-2-11-2-3-3-2-10-1-24v-28l5-3 12-7 3-2h5l-2 5 3 1v7l-1 1h-6-1v43l40 3v-2l-29-1-2-1v-8l1-6 1-58 5-1v48l-1 14 13 1-1-1-5-3-1-22v-27l2-7 9-10 8-5 10-4z" fill="#FCFDFC"/>
<path transform="translate(762,523)" d="m0 0h19l12 2 2 2-3 2v2l7 7v2h2v2l4 2v5l-3 3-3 2-5 3h-2l-2 4-7 4-11 2-19 4h-2l-1 5 7 1-3 3-5 2h-4v2l-12 6-7 4-13 5-9 4-9 3h-3v-2h-2l2-6 9-12 5-8 6-5 11-6 14-8 3-7-7 3-10 6-25 10-5 4 4-16 5-24 4-4 16-4z" fill="#BCE9FC"/>
<path transform="translate(393,1208)" d="m0 0h72l-2 20-42 1v18l39 1v17l-39 1-1 11v9h43l1 9v11h-71z" fill="#020202"/>
<path transform="translate(423,285)" d="m0 0 28 1 29 3 3 1v3h-16l-41-2v78l-1 14h20l23 1h16l-4-7-18-12-5-2h-18l-10-2-1-2 1-10 4-6 7-6 7-5 3-1h8l11 4 6 4 6 7v17h-3l-16-8-13-4-7-1v2l5 2v3l8-1 16 6 8 5 4 4v-2l2-1 2-4 16-16 2-4 10-6 8-6-9 3-14 7-1-3 4-5 9-5 13-5 1-2-16 5-5 1 5-8 11-4h9l2 3 1 6-2 7-5 5-12 10h-2v2l-8 7-8 9-5 8-5 12h52l-1-53 1-23-7 4-13 2-10 3-5 3h-4l2-6 14-14 9-7 11-2 19-1v3l-6 10-3 8-1 6-1 18-1 50 6 1v5l-2 2h-17l-46-1h-69l-3-2 1-4 9-2 1-99z" fill="#ABE2F6"/>
<path transform="translate(1198,632)" d="m0 0 4 1v30l2 5 11 11 8 7 27 27 8 7 7 7v3l-2 1h-125l-2-1 2-5 16-17 35-35 6-8 1-32z" fill="#57A7B7"/>
<path transform="translate(322,679)" d="m0 0h6l1 1h48l1 28v14l-1 34-2 7-2 1h-49l-3-1-1-5v-59l1-18z" fill="#F7944B"/>
<path transform="translate(861,722)" d="m0 0h6l5 5-1 2-5-5-3-1 1 4 1 9-1 4-1 7v9l-4 16h-2l-1 25 1 10-1 1h-5v7h2v6h18l-2 7v21l-5 4-7 3-5 16-9 14-6 5-12 4h-7l-4-2-5-7v-10l2-1 4-8 3-8 6-4 2-4 1-11-1-7v-6l2-5 2-10 2-17 1-11 1-8 3-5 4-4h2l1-7 3-3 2 2v11l4 5 1-3v-12l2-21-1-12 2-4z" fill="#25AC7B"/>
<path transform="translate(830,1206)" d="m0 0h18l13 2 1 1-1 9-3 14-5-1-6-2-11-1-11 4-3 1-2 4-4 9v21l4 9 5 5 9 4h10l11-5h2l3 12 2 6v5l-7 3-6 1h-20l-14-4-12-7-7-7-7-12-4-13v-15l2-10 6-11 8-9 10-7 10-4z" fill="#020202"/>
<path transform="translate(743,1206)" d="m0 0h16l14 2 1 2-3 10-1 13-9-4-11-1-10 3-6 4-4 5-3 10v12l3 10 6 9 11 5h12l11-2 3 13-1 5-5 4-10 2h-14l-11-2-16-8-8-7-7-12-3-9-1-8v-13l2-11 8-14 10-8 10-6z" fill="#020202"/>
<path transform="translate(426,291)" d="m0 0h25l24 2 7 1 1 1 2 37v17l-1 20-1 2-4-2v-2l-5-2-10-5-9-3-4 1h-9v-1h5l-1-3-4-2v-2h7l13 4 18 9v-17l-7-8-11-5-4-1h-8l-6 3-9 7-4 5-2 6v8l10 1h18l10 5 14 10 4 7v1h-17l-43-2z" fill="#0DA3DC"/>
<path transform="translate(483,290)" d="m0 0 2 1 2-1h27l34 1v1l-21 2-7 4-13 12-6 6-2 5 7-3 8-3 8-2 12-2 4-2v33l1 43-1 1h-26l-26-1 3-9 4-8 9-11 8-8h2v-2l13-10 5-5 2-7-2-9-13 2-7 2-2 5-2 2 4-1 12-4h4l-1 3-16 6-8 6-1 4 19-9 5-1-5 5-9 6-5 3-3 5-9 9h-2l-2 5-2 1-2 4h-1v-37l-2-37-7-1v-1h8z" fill="#10A3DA"/>
<path transform="translate(440,692)" d="m0 0h2l3 12 2 22-1 16-6 21-8 16-6 8-5 1-1-4 5-6 3-7 2-11v-9l-2-3h-6l-2 2h-5l-7 2-1 4-7 5-1-2h-7l-3-2-6 1-1 8h-1l1-12 1-52 4 3 7-1 9-3 4-3h8l4-2h8l1-1 11 1-1-3z" fill="#F7944B"/>
<path transform="translate(272,672)" d="m0 0 4 1 6 8 3 2 5-2 7 1 1 1 11 1 6-2 1 69 1 14 2 7-5-5-1-21-3-4-1-6-2-1v-4l-7 6h-6l-1-7h-3l-3-3v2l-3 2-1 2h-6l2 6-2 1v-2h-3l-1 3-3 3-2 3-6-4-2 1-2-16v-11l3-19 7-19z" fill="#F7944B"/>
<path transform="translate(1039,247)" d="m0 0 38 1 12 2 10 5 5 4 6 9 2 6v12l-3 12-6 11-3 5-1 47-4 10-8 7-5 2-8 1h-42l-14-3-8-5-7-8-2-5-1-7v-71l2-12 5-9 8-8 13-5zm-11 7-10 4-7 7-4 7-1 5-1 17v56l2 11 6 8 7 5 3 1 12 1h34l11-1 6-3 4-4 1-9-43-1-1-6 40 1 1 3 3 1 1-37 3-10 5-8 4-9 1-5v-17l-3-6-8-7-9-3-10-1z" fill="#F9FDFD"/>
<path transform="translate(863,723)" d="m0 0 4 1 8 8 11 19 2 1-1-4 9-2 4 1-3 2h6v17l-5 10-9 12-8 8-7 11-1 12-1 2-9 1h-10l-1-5 1-2h-2v-7l5-1-1-17 1-15 1-3h2l1-9 2-7v-14l2-3v-12l-2-1z" fill="#1DA26B"/>
<path transform="translate(922,1228)" d="m0 0h10l10 3 7 7 4 9 1 4v17l-5 10-8 7-6 2h-15l-7-3-6-5-4-7-2-9v-11l3-10 6-8 8-5z" fill="#FAF9F9"/>
<path transform="translate(324,669)" d="m0 0h42l13 2 4 3v21l-1 66-2 10-5 4-6 2h-7l-2-1-1-5h-2v5l-5 1-5-2h-6l-3 2-15-1-5-6-2-5-1-14v-48l1-25 3-6zm-2 10-1 2-1 18v59l1 5 3 1h49l2-1 2-7 1-34v-14l-1-28h-48l-1-1z" fill="#FDFEFD"/>
<path transform="translate(511,1228)" d="m0 0h13l10 1 9 6 5 9 1 4v19l-4 9-4 5-10 4-12 2h-10l-1-7v-44l1-7z" fill="#F8F7F8"/>
<path transform="translate(826,634)" d="m0 0 5 1 4 6 6 8h4l3-6h9l8 5v2l3-2h5v3l-11 1-2 1-9 1-1 1-7 1-3 5h-2v2h8l4 5 1 4 7 2h10l2 1-1 13-3 5-7-1-9-3-3-3-11-4-2-1-1 2-8-1-6-3-1-7-7-3-1-6-9 4h-6l-3-4-3-1-2 5-3 3v6l1-1h5v4h-8l-5 1-2 5-3 3-4-1 5-3 7-11 3-9v-8l-1-8 4 4 2 4 5-2 5-7 5-3h6l6 5 3 9h2l1-2v-10l-3-6v-3h3l5 9 4 11v3l6-4-1-6-5-10-4-5z" fill="#B7E7FB"/>
<path transform="translate(521,316)" d="m0 0h9l2 3 1 6-2 7-5 5-12 10h-2v2l-8 7-8 9-5 8-2 4h-2l-1 4-4-1-5-5-15-10-5-2h-18l-10-2-1-2 1-10 4-6 7-6 7-5 3-1h8l11 4 6 4 6 7v17h-3l-16-8-13-4-7-1v2l5 2v3l8-1 16 6 8 5 4 4v-2l2-1 2-4 16-16 2-4 10-6 8-6-9 3-14 7-1-3 4-5 9-5 13-5 1-2-16 5-5 1 5-8z" fill="#E5F6FB"/>
<path transform="translate(322,679)" d="m0 0h6l1 1h48l1 28v14l-1 34-2 7-2-1v-7l2-2 1-56-5 1-2 4-5 7-7 2v2l-6 2-11 4-7 3h-7l-4 2-1 34h-1v-59l1-18z" fill="#FEA063"/>
<path transform="translate(782,678)" d="m0 0 8 1v1l-7 2-1 11-3 15-1 11-2 5-1 12v12l3 5 1 6-2 9-3 1v2h-13l2 4-3-1-6-10-6-9 3-9 2-3v-17l3-11v-12l5-12 12-5 4-6z" fill="#56A7B6"/>
<path transform="translate(1198,632)" d="m0 0 4 1v30l2 5 11 11 8 7 27 27 8 7 7 7v3l-2 1h-125l-2-1 2-5 16-17 35-35 6-8 1-32zm0 40-7 6-7 8-31 31-6 8h106l-6-7-20-20h-2l-2-4-7-7-8-7-8-8z" fill="#F0FAFC"/>
<path transform="translate(920,589)" d="m0 0 5 5 8 9 7 10 4 7 6 10 2 7v4h2v2h-3l-1 2-5 2 1 6-10-1-14-3-7-3-13-5-3-8-4-1-1-10 12-4 4-2 1-2 3-1 2-4 4 1 1-5 8-3-1-3h-2l-6-8z" fill="#24AD7A"/>
<path transform="translate(618,734)" d="m0 0h1l2 8 10 6 1 1 1 11 8 6 6 3v24l-3 7-8 4-4 9-4 10-3 5h-5l-2-7-2-24v-53z" fill="#2FB68C"/>
<path transform="translate(483,290)" d="m0 0 2 1 2-1h27l34 1v1l-21 2-7 4-13 12-6 6-2 5 3 1-8 9-3 7 14-15 5-2-3 5-1 1 4-1 12-4h4l-1 3-16 6-8 6-1 4 19-9 5-1-5 5-9 6-5 3-3 5-9 9h-2l-2 5-2 1-2 4h-1v-37l-2-37-7-1v-1h8z" fill="#E0F4FB"/>
<path transform="translate(740,525)" d="m0 0h6l-1 10-4 13-5 5-11 7-27 11-5 4 4-16 5-24 4-4 16-4z" fill="#10A3DA"/>
<path transform="translate(679,602)" d="m0 0h3l-1 15-8 8-8 4-11 7-5 5-12 13h-2l-1 3-10 8-5 5v5l-2-2-2-4-2-2 5-12 8-16h2l2-6 4-5 4-3h2l1-3 9-6 8-4 7-3 9-5z" fill="#BBE8FC"/>
<path transform="translate(571,1322)" d="m0 0 11 1 5 5 1 2v6l-5 5-5 1-4-4 1-5 1-2h2l-1-2h-8l-7 3-5 8-2 5v14l5 10 5 4 9 2h7l11-3-5 8-10 4h-15l-9-4-6-4-6-10-2-6v-9l4-12 7-9 8-5 6-2z" fill="#020202"/>
<path transform="translate(832,534)" d="m0 0 10 3 12 5-1 4-1 6 6 9 3-1-1-8-2-3v-3l5 1 2 2 2 20 2 4v7l-1 2-10 1-5-2-11-11-6-3-5 1-2 2-1-5-1-6-6-2 3-8 3-5 2-5 2-2z" fill="#B9E8FC"/>
<path transform="translate(426,323)" d="m0 0h1v29l2 1v8l10 1h18l10 5 14 10 4 7v1h-17l-43-2z" fill="#10A3DA"/>
<path transform="translate(450,331)" d="m0 0h8l11 4 6 4 6 7v17h-3l-16-8-13-4-7-1v2l5 2v3l-6 1-11-3 1 6h-2l-1-2 1-10 4-6 7-6 7-5z" fill="#CBF0FD"/>
<path transform="translate(733,214)" d="m0 0h2v52l3-1v-2h16l31 2-2 4-4 7-22-1-18-1-10-2-3-5-1-9-1-27v-13z" fill="#FCB444"/>
<path transform="translate(790,600)" d="m0 0h6l-1 5-2 5h12l5-1v2h-2v3h-2l-1 7-1 4 2 6 1 2 7 1 7 2-3 1 4 9v10l-2 3-3-1-3-9-5-4h-6l-5 2-2 4-5 5-4 1-6-12v-9l2-3h2l1 3 7 1 2-1 1-16 2-5-9 3-3 2 1-5-8-1-3-3v-9h3l2 4v3l7 1z" fill="#56A7B6"/>
<path transform="translate(548,291)" d="m0 0h6v3l-6 10-4 10-1 1-1 9-1 56-3-4-1-44 1-23-7 4-13 2-10 3-5 3h-4l2-6 14-14 9-7 11-2z" fill="#F2FAFC"/>
<path transform="translate(932,701)" d="m0 0 6 1v9l1 16v16l2 13v7l-1 3-2 18-2 11 1 3-2 1 1 6-1 5h-5l-1-4 1-4-1-1v-7l2-13 1-15-2-15-2-5v-11l1-9-5-1v2l-2-1 1-3 3-2 3-7h2z" fill="#0DA3DC"/>
<path transform="translate(418,385)" d="m0 0h44l23 1 63 1v5l-2 2h-17l-46-1h-69l-3-2 1-4z" fill="#DAF2FA"/>
<path transform="translate(923,1353)" d="m0 0h14l2 6v7l2 3-6 11-5 4h-13l-5-4-3-5 1-9 6-9z" fill="#020202"/>
<path transform="translate(848,643)" d="m0 0h9l8 5v2l3-2h5v3l-11 1-2 1-9 1-1 1-7 1-3 5h-2v2h8l4 5 1 4 7 2h10l2 1-1 13-3 5-7-1-9-3-3-3-11-4-1-2 4 1 5 1-1-7 2-4 1-4-2-1-7 2-5 5-4-2v-4l9-7 3-4-2-9 5 2h2z" fill="#91D7F0"/>
<path transform="translate(865,550)" d="m0 0h1l1 4v-2l5 1 12 7 13 10 2 2v5l-3 8h-10l-14-1-5-1 1-3v-7l-2-4-1-9z" fill="#58A8B9"/>
<path transform="translate(872,675)" d="m0 0 4 2 1 2 3 1 2 9 2 2-1 11 5 10-2 2 1 8 1 13-2 7 1 6-3-4-3-6-3-12h-2l-4-10-1-10-3-5v-7l2-1z" fill="#24AD7B"/>
<path transform="translate(834,579)" d="m0 0 3 2v2h2v38l-2 2-5-1-1-3h-6v2l-4-1-2-7-1-6-1-3 1-7 5-2 5-8 1-3 5-2z" fill="#24AD7A"/>
<path transform="translate(1148,413)" d="m0 0 5 3 7 8 14 17 13 18 12 20 10 17 11 23 11 29 8 26 3 11-4-1-3-7-6-21-9-26-9-21-10-19-12-20-11-16-9-12-11-14-8-9z" fill="#B77999"/>
<path transform="translate(492,294)" d="m0 0h30l-2 4-13 12-9 9-8 12-3 3v-24l1-12 1-3z" fill="#12A3D9"/>
<path transform="translate(679,602)" d="m0 0h3l-1 10-2 4-17 7-16 6-11 6-6 7-7 14-4 9-1 5-4-3 5-12 8-16h2l2-6 4-5 4-3h2l1-3 9-6 8-4 7-3 9-5z" fill="#90D7F0"/>
<path transform="translate(821,579)" d="m0 0h4l-1 6-5 12-5 9-5 4-4 1h-12l-1-3 4-8h-6l-2 10-3-1 2-2 1-9 10-16 4-1-1 13 4-1 5-6 4-1 4-5z" fill="#BAE8FC"/>
<path transform="translate(803,644)" d="m0 0h6l6 5 3 9h3v2l-4 4h-5l-2 1v-2l-9 4h-6l-3-4-3-1-2 5-3 3v6l1-1h5v4h-8l-5 1-2 5-3 3-4-1 5-3 7-11 3-9v-8l-1-8 4 4 2 4 5-2 5-7z" fill="#90D7F0"/>
<path transform="translate(872,617)" d="m0 0 11 2 5 8 2 5 5 1-3 3-5-4-1-5-1 2h-3l-1 11-3 1-1 7 1 2-1 2h-2v-4h-2v-2h-7l-5-4-4-9 1-5 4-1 4 5h2l-2-10 2-3z" fill="#23AC79"/>
<path transform="translate(1059,274)" d="m0 0 5 1 6 4 3 9v15h-4l-5-6-4-9v-8l-3 2 1 10 8 11 8 5 10 1-1 3-3 1h-10l-9-6-6-7-4-9v-7l3-6z" fill="#FAFDFD"/>
<path transform="translate(990,1353)" d="m0 0 5 1 1 1v7l-3 8v4l4-2 5-6 10-6h12l15 2 27 2 1 2h-16l-31-2h-10v2l-5 4-7 8-6 5-3 1-3-2-2-9-5 3h-3l8-15 3-4h2z" fill="#020202"/>
<path transform="translate(370,443)" d="m0 0 1 3-14 25-11 21-5 11-10 26-7 21-7 28-6 35-2 13-2 1v-9l3-24 7-33 8-26 11-29 12-26 13-24 8-12z" fill="#AF759D"/>
<path transform="translate(642,1039)" d="m0 0h10l10 5 4 5 1 7-3 5h-12l-8-4-7-7-1-5 4-5z" fill="#A06DAC"/>
<path transform="translate(893,838)" d="m0 0h5l-1 7-5 16-5 8-6 6h-5l-2-4 3-10 2-5v-13l9-4z" fill="#2BAC82"/>
<path transform="translate(1104,869)" d="m0 0 8 2 4 5 1 2v7l-4 8-5 3-7-1-6-5-1-2v-9l4-7z" fill="#0B4E9E"/>
<path transform="translate(926,426)" d="m0 0 9 1 6 4 4 7v6l-5 4-8 1-8-3-4-5-1-2v-6l3-5z" fill="#FC9E3B"/>
<path transform="translate(873,648)" d="m0 0h2v5h-3v4l-2 2v1h-6l-3-2 1 1 1 4-1 2h-3v2l4 1v4l7 1 2 1v6h-1v-5h-13l-7-3-5-8h-9l1-3 2-1 3-5 7-1 1-1 9-1 2-1 11-1z" fill="#2AAD81"/>
<path transform="translate(1077,277)" d="m0 0h21l1 1v7l-4 7-7 10-1 1h-6l-2-7-3-13v-5z" fill="#FAFDFD"/>
<path transform="translate(423,285)" d="m0 0 28 1 29 3 3 1v3h-16l-16-1h-25l-1 44-2 1-1-13v-38z" fill="#D3F4FE"/>
<path transform="translate(1072,556)" d="m0 0h6l9 8 2 4v6l-4 6-2 1h-6l-6-4-3-3-1-3v-10z" fill="#094D9E"/>
<path transform="translate(323,831)" d="m0 0 3 1 11 33 13 27 10 16 11 16 6 9-2 2-8-9-16-24-12-22-10-25-6-20z" fill="#B1769F"/>
<path transform="translate(485,548)" d="m0 0h2l-1 4-9 15-8 16-6 14-4 13-1 8h-6l-1-2 8-25 9-20 9-16 4-5z" fill="#FDB543"/>
<path transform="translate(1049,339)" d="m0 0h39l1 9-3 1h-38l-1-1v-6z" fill="#F8FCFD"/>
<path transform="translate(450,331)" d="m0 0h8l11 4 5 3-2 1-2-1 4 4-1 2-6-5-11-1-5 1-1 3 11 2 12 4 4 3v2l-6-1-12-5-20-1-4-2-4 2 6-7 10-7z" fill="#C3EDFB"/>
<path transform="translate(434,840)" d="m0 0h7l5 6 2 7v7l-3 5h-8l-5-6-2-7 1-9z" fill="#FDB443"/>
<path transform="translate(968,1353)" d="m0 0h4l2 8 7-6 4-2 1 4-9 9-3 6v7l-4 5-5-1-1-2v-14l-4 2 2-8z" fill="#020202"/>
<path transform="translate(420,385)" d="m0 0h42l23 1 7 1v1l-8 2-52 1h-19v-3z" fill="#FCFDFD"/>
<path transform="translate(556,505)" d="m0 0 7 1 4 7-1 5-5 6-4 2h-8l-4-4 2-9 2-4z" fill="#FDB443"/>
<path transform="translate(949,1353)" d="m0 0h7l2 3-1 7-3 7 1 4 5-5-2 5-5 8-2 1h-6l-2-2 1-6 1-8-4 1 6-13z" fill="#020202"/>
<path transform="translate(808,1358)" d="m0 0h10l2 3-1 10-4 6-5 3h-6l-3-5v-8l5-8z" fill="#F4EEF1"/>
<path transform="translate(767,562)" d="m0 0 5 1-1 3-7 3-13 2-1 5 7 1-3 3-12 4h-6l-4-2 1-4 9-8 9-4 10-3z" fill="#90D7F0"/>
<path transform="translate(1215,851)" d="m0 0h2l-1 9-9 29-9 25-11 25-12 23-4 5-3-1 10-17 13-27 13-34 7-22z" fill="#B5789C"/>
<path transform="translate(522,322)" d="m0 0h4l-1 3-16 6-8 6-1 4 19-9 5-1-5 5-9 6-5 3-3 3h-2l-2 4-5 4-4-1 2-8 7-11 9-8 8-4z" fill="#11A3DA"/>
<path transform="translate(892,1355)" d="m0 0h16l-1 5-3 7v9l1 7-2 1h-6l-3-3-1-4 2-16-4-2z" fill="#020202"/>
<path transform="translate(643,434)" d="m0 0 5 1 3 4-1 9-7 6h-8l-3-4v-8l4-5z" fill="#11A3DA"/>
<path transform="translate(483,290)" d="m0 0 2 1 2-1h27l34 1v1l-21 2-5 2v-2l-33 1-1 15-1 1-1 7h-1l-1-5-1-15-1-3-7-1v-1h8z" fill="#BAE9F9"/>
<path transform="translate(898,174)" d="m0 0 14 1 16 3 17 5 16 6 31 15 7 6v2l-5-2-24-13-24-10-20-6-28-5z" fill="#AF75A0"/>
<path transform="translate(775,602)" d="m0 0h1l1 9 2 2 8 2v4l3-3 8-1-1 10-1 11-5 2-6-2v-3l-2-1 3-2 1-6h-4l-3-5-5-7z" fill="#BCE9FD"/>
<path transform="translate(1047,352)" d="m0 0h35l5 1 3 4-1 2h-41l-1-1z" fill="#FBFDFD"/>
<path transform="translate(453,337)" d="m0 0h9l6 2 5 4-3-3v-2l6 2 5 6v17h-3l-7-4 2-1h4l1-3-7-2 2-1 4 1-4-4-15-5-8-2v-4z" fill="#C6EDFB"/>
<path transform="translate(999,496)" d="m0 0 5 1 7 5 2 5-1 6-3 3-9-1-5-6-1-7 3-5z" fill="#0FA3DB"/>
<path transform="translate(834,566)" d="m0 0 5 1v5l2 6h3l-1 2-3 1-6-3v4l-5 2-1 5-4 6-4 2-1-3 5-12 3-10 4-5z" fill="#27AD7E"/>
<path transform="translate(947,685)" d="m0 0 7 1v2h2v5l-4 2h-3l4 4 7 3 4 24 5 19 2 7v2h2l1-3-1 6-4 2-4-15-5-26-2-15-8-3-8-4 4-3 8-2-3-2h-7l-1 1-12 1-2 5h-7v-1l6-1 2-5 1-1 14-2z" fill="#2AB384"/>
<path transform="translate(788,186)" d="m0 0h7l10 3 9 6 5 6 3 8-1 7h-2l-4-12-7-8-7-3-5-1-13 1-9 2 2-4 8-4z" fill="#FDFEFD"/>
<path transform="translate(779,382)" d="m0 0h7l5 4 1 2v7l-6 5-7-1-4-4v-9z" fill="#11A3DA"/>
<path transform="translate(837,1358)" d="m0 0 9 1 1 1v6l-4 6-7 4-7-1-1-7 7-9z" fill="#F1EBF0"/>
<path transform="translate(1048,329)" d="m0 0h39l1 5-1 1h-39l-1-5z" fill="#FCFDFD"/>
<path transform="translate(526,946)" d="m0 0 7 1 4 6 2 7-1 7-4 1-7-6-3-5v-9z" fill="#A26EAA"/>
<path transform="translate(1076,263)" d="m0 0h14l8 4 2 6-6-1-5-2h-15l-2 8-5-2-1-4 3-5z" fill="#F7FCFD"/>
<path transform="translate(848,643)" d="m0 0h9l8 5v2l3-2h5v3l-11 1-2 1-9 1-1 1-7 1h-3l-2-9 5 2h2z" fill="#93D8F1"/>
<path transform="translate(483,298)" d="m0 0h1l1 15 2-2 1 21 8-11 4-4-1 4 3 1-8 9-3 6v3h-4l-2 29h-1v-37l-1-18z" fill="#9ADBF2"/>
<path transform="translate(858,546)" d="m0 0 5 1 2 2 2 20 2 4v7l-1 2h-7l4-2h2l-1-6-6 1-1-6v-3h-2l-6-11 1-3 6 9 3-1-1-8-2-3z" fill="#90D7F0"/>
<path transform="translate(423,287)" d="m0 0h8v2l14-1h28l10 2v3h-16l-44-2z" fill="#DCF3FA"/>
<path transform="translate(790,600)" d="m0 0h6l-1 5-2 5 8 1-2 6-1-2-9 3-3 2 1-5-8-1-3-3v-9h3l2 4v3l7 1z" fill="#90D7F0"/>
<path transform="translate(858,1358)" d="m0 0 8 1 1 4-2 8-10 8-3-1 1-11 3-7z" fill="#F1E8EC"/>
<path transform="translate(873,648)" d="m0 0h2v5h-3v4l-2 2v1h-6l-3-2v-2l-9-2-2 4-1 5 1 5-4-4h-9l1-3 2-1 3-5 7-1 1-1 9-1 2-1 11-1z" fill="#30AC8A"/>
<path transform="translate(929,1357)" d="m0 0 3 1-1 9-3 9-5 2-4-4v-9l3-5 2-2z" fill="#F6EFF0"/>
<path transform="translate(782,648)" d="m0 0 4 4 2 4 5-2 2-1-1 12-5-3-2 5-3 3v6l1-1h5v4h-8l-5 1-2 5-3 3-4-1 5-3 7-11 3-9v-8z" fill="#90D7F0"/>
<path transform="translate(802,646)" d="m0 0 7 1 4 3v4l-3 1h-6l-3 6h-2v3h2v3h-6l-1-1v-11l7-8z" fill="#CEF1FE"/>
<path transform="translate(430,355)" d="m0 0 11 2h10l4-1 14 5-9 3-8-1h-13l-7-1-2-2z" fill="#E4F5FB"/>
<path transform="translate(643,623)" d="m0 0 1 3-8 7-7 9-7 14-4 9-1 5-4-3 5-12 8-16h2l2-6 4-5 6-4z" fill="#8FD6EF"/>
<path transform="translate(784,641)" d="m0 0 14 2 1 3-4 7-4 3-4 1-4-8-1-1v-5h2z" fill="#30B68D"/>
<path transform="translate(543,314)" d="m0 0 1 4-1 18-1 50 4 1h-61v-1l53-1v-9l2 2 1-54 1-9z" fill="#B4E6F9"/>
<path transform="translate(618,734)" d="m0 0h1l2 9h-2v64l2 21-2-1-2-17-1-13v-53z" fill="#57A7B7"/>
<path transform="translate(421,370)" d="m0 0h1v5h2v8h21l23 1h16v-3h2l2-4-1 6-1 2h26v1h-50l-41-1z" fill="#B6E7F8"/>
<path transform="translate(525,324)" d="m0 0 1 3-1 5-6 1-16 8-3 1-1-3 4-5 9-5z" fill="#CCEDF9"/>
<path transform="translate(823,634)" d="m0 0 8 6 5 10 1 6-5 4h-2l-3-8-2-12-2-3z" fill="#2EAD86"/>
<path transform="translate(607,1358)" d="m0 0 4 1 2 3-1 6-3 9-4 2-2-2v-15z" fill="#F2E9ED"/>
<path transform="translate(991,705)" d="m0 0 4 2 7 18 2 12 2 24v28l-4 16-1-4 3-14v-21l-3-32-4-15-4-10h-4z" fill="#28B181"/>
<path transform="translate(894,1331)" d="m0 0h10l8 5-3 3-6 2h-6l-5-5z" fill="#020202"/>
<path transform="translate(786,1322)" d="m0 0h2l-1 4-2 23-2 5-2 1-2-1 2-22 3-8z" fill="#F1E9EC"/>
<path transform="translate(708,1356)" d="m0 0h5l-2 2 1 4-5 8-7 6h-3l1-7 7-11z" fill="#F3EBEB"/>
<path transform="translate(1148,413)" d="m0 0 5 3 7 8 14 17 5 8-3-1-9-9-11-13-6-7z" fill="#FD9F63"/>
<path transform="translate(826,574)" d="m0 0 8 5v3l-5 2-1 5-4 6-4 2-1-3 5-12z" fill="#34B491"/>
<path transform="translate(315,808)" d="m0 0 10 4 12 4 1 3-1 2-10-2-12-5-4-3 1-2z" fill="#F8964F"/>
<path transform="translate(370,443)" d="m0 0 1 3-14 25-8 15-3-2 15-28 8-12z" fill="#AF75A0"/>
<path transform="translate(486,388)" d="m0 0h6l2 1 20 2v1h-30l-52-1v-1l52-1z" fill="#D3F4FF"/>
<path transform="translate(675,601)" d="m0 0 3 1-4 3-9 5-12 6-9 5-8 7-2-1 4-5 15-10 15-8z" fill="#D9F3FD"/>
<path transform="translate(798,177)" d="m0 0h13l8 4-3 1-1 2-8-2h-10l-11 1 2-3z" fill="#FDFEFD"/>
<path transform="translate(839,685)" d="m0 0 5 1 5 6 1 6-2 3-5-1-4-6z" fill="#24AD7A"/>
<path transform="translate(865,717)" d="m0 0 3 1 8 10 8 14 5 10-1 2-5-6-12-21-3-5-3-3z" fill="#90D7F0"/>
<path transform="translate(960,706)" d="m0 0h1l2 16 6 23 2 7v2h2l1-3-1 6-4 2-4-15-5-26z" fill="#28B181"/>
<path transform="translate(686,1358)" d="m0 0 2 1-1 9-8 10h-3l1-7 6-10z" fill="#EDE2E8"/>
<path transform="translate(1189,930)" d="m0 0 1 3-8 15-7 14-4 5-3-1 10-17 9-18z" fill="#BB7B97"/>
<path transform="translate(440,342)" d="m0 0h12l16 4 8 4 1 3-6-1-12-5-14-2-6-1z" fill="#12A3D9"/>
<path transform="translate(313,586)" d="m0 0h1v8l-3 19-2 13-2 1v-9l3-24 2-7z" fill="#BA7B97"/>
<path transform="translate(701,541)" d="m0 0 2 2v14l-1 3h-2l1 6-3 4-5 5 4-16z" fill="#50A8AF"/>
<path transform="translate(423,285)" d="m0 0 28 1 13 1v1l-19 1h-14v-2h-8v23h-1v-24z" fill="#BCEAFB"/>
<path transform="translate(768,248)" d="m0 0 6 2 10 7-1 2-10-4-21-1v-2l5-1h11z" fill="#FDB442"/>
<path transform="translate(453,337)" d="m0 0h9l6 2 1 5-3 1-7-2-9-1v-4z" fill="#F7FCFD"/>
<path transform="translate(764,564)" d="m0 0h6v2l-6 3-13 3-7 4-4-1 8-6 11-4z" fill="#4DA6BC"/>
<path transform="translate(851,653)" d="m0 0h9v1h-8l-2 4-1 5 1 5-4-4h-9l1-3 2-1 3-5 7-1z" fill="#3BB199"/>
<path transform="translate(1183,789)" d="m0 0 3 2-2 12-7 27-2 5-1-3 6-26z" fill="#FEA063"/>
<path transform="translate(323,831)" d="m0 0 3 1 8 25-1 4-3-3-7-23z" fill="#946385"/>
<path transform="translate(429,349)" d="m0 0 1 3 9-1 3-1v2l5 2v3l-6 1-11-3 1 6h-2l-1-2z" fill="#8DD3EB"/>
<path transform="translate(851,634)" d="m0 0h5v7l9 5 8 1v1l-8 2v-2l-6-2-4-2h-7l-3 6h-5l-1-3h5l4-6 6 1v-2h-3z" fill="#57A7B7"/>
<path transform="translate(823,672)" d="m0 0 9 4v6h-7l-6-3 1-4z" fill="#CCF1FD"/>
<path transform="translate(522,322)" d="m0 0h4l-1 3-16 6-8 6-2 2v-4l8-7 8-4z" fill="#25A4D0"/>
<path transform="translate(515,291)" d="m0 0h33v1l-21 2-5 2v-2h-29v-1l21-1z" fill="#AFE4F8"/>
<path transform="translate(824,652)" d="m0 0 3 1 2 9-3 4h-5l-3-3 4-8z" fill="#D0F2FE"/>
<path transform="translate(986,1355)" d="m0 0 1 3-5 8-5 11-4 1v-6l5-8 7-7z" fill="#EAD5D7"/>
<path transform="translate(1159,888)" d="m0 0 1 4-8 16-5 8-2-1 4-10 4-9 4-7z" fill="#FEA063"/>
<path transform="translate(1215,851)" d="m0 0h2l-1 9-8 26h-3l3-11z" fill="#BA7B97"/>
<path transform="translate(789,662)" d="m0 0 4 1 2 4-5 2v5h2v5l-2-1v-2l-5-1-1 2-1-5 2-5 3-3z" fill="#57A7B7"/>
<path transform="translate(1030,376)" d="m0 0h35v1l-15 1 17 1v1h-38v-1h13v-2h-12z" fill="#D3F4FF"/>
<path transform="translate(376,708)" d="m0 0h2v14l-1 34-2 7-2-1v-7l2-2z" fill="#FD9F62"/>
<path transform="translate(538,376)" d="m0 0 3 4v6h5v1h-61v-1l53-1z" fill="#C3EDFC"/>
<path transform="translate(485,293)" d="m0 0h3v17l-1 1-1 7h-1l-1-5-1-18z" fill="#EDF8FB"/>
<path transform="translate(851,548)" d="m0 0 1 3 6 1 1-3 3 6v5l-4 2-4-5-3-5z" fill="#50A6B9"/>
<path transform="translate(478,343)" d="m0 0 3 3v17h-3l-7-4 2-1h4l1-3-7-2 2-1 4 1z" fill="#9FDDF4"/>
<path transform="translate(775,602)" d="m0 0h1l1 9 2 2 8 2v4l3-3 2 1-6 6-4-1-6-9-1-1z" fill="#90D7F0"/>
<path transform="translate(525,324)" d="m0 0 1 3-1 5-6 1-5 1-2-2-3-2z" fill="#BDEAFA"/>
<path transform="translate(487,377)" d="m0 0 1 3-2 5h26v1h-50l-6-1v-1h28v-3h2z" fill="#A0DDF4"/>
<path transform="translate(896,746)" d="m0 0 4 1-3 2 2 2-8 4-5-1-2-4 4 2-1-4z" fill="#39AE95"/>
<path transform="translate(818,637)" d="m0 0h3l5 9 3 8-1 3-1-4-5 2-2-12-2-3z" fill="#A6E0F6"/>
<path transform="translate(777,601)" d="m0 0 3 2 1 6 4 2v2h2v2l-8-1-3-3v-9z" fill="#24A4D0"/>
<path transform="translate(346,485)" d="m0 0h2l-1 5-6 13-3 8h-2l1-7 8-18z" fill="#9C6993"/>
<path transform="translate(863,709)" d="m0 0 1 2 3 1 8 12-1 2-7-8-2-1 1 4 3 1-1 2-5-5-1-9z" fill="#57A7B7"/>
<path transform="translate(845,541)" d="m0 0h7l2 1-1 4-1 2-6 1-3-1v-5z" fill="#C8EFFC"/>
<path transform="translate(815,596)" d="m0 0h2l-1 7-3 4h-6l1-5 5-5z" fill="#CDF1FD"/>
<path transform="translate(796,654)" d="m0 0h3l1 5-1 5h2v3h-6l-1-1v-11z" fill="#B8E7FB"/>
<path transform="translate(686,598)" d="m0 0 2 2v7l-3 9-3 1v-7l3-11z" fill="#FDFEFD"/>
<path transform="translate(746,258)" d="m0 0h27l5 1v2h-16l-16-2z" fill="#FD9F61"/>
<path transform="translate(991,705)" d="m0 0 4 2 7 18 1 5v13h-1l-2-14-6-19-5-1z" fill="#2DB388"/>
<path transform="translate(795,620)" d="m0 0h1l1 7-1 9-5 2-6-2v-3l-2-1 5-5 4-2-1 4-3 3v3l6 1v-15z" fill="#90D7F0"/>
<path transform="translate(452,356)" d="m0 0 9 2 8 3-9 3-8-2 1-2-7-1v-1z" fill="#BAE9F9"/>
<path transform="translate(422,324)" d="m0 0h1l1 12h1l-1 22-2 1z" fill="#B8E8F9"/>
<path transform="translate(824,579)" d="m0 0 1 3-6 15-4-4 1-4 4-6z" fill="#90D7F0"/>
<path transform="translate(502,347)" d="m0 0 2 1-11 11h-2l-1 4-3-1 1-10 2-3-1 6 6-1 5-6z" fill="#94D9F1"/>
<path transform="translate(1191,789)" d="m0 0h1l-1 12-4 14h-1v-8l3-17z" fill="#FEA063"/>
<path transform="translate(643,623)" d="m0 0 1 3-9 7-7 6 2-6 4-5 6-4z" fill="#43A4BF"/>
<path transform="translate(463,333)" d="m0 0 6 2 5 3-2 1-2-1 4 4-1 2-6-5-10-3-1-2 7 1z" fill="#8DD0E6"/>
<path transform="translate(508,321)" d="m0 0 2 1-4 5v3l-6 4-3-1 2-4z" fill="#BFEBFB"/>
<path transform="translate(866,550)" d="m0 0 6 1 11 6 6 4-4 1-9-6-9-4 1 4-2 2z" fill="#2AB384"/>
<path transform="translate(400,811)" d="m0 0 3 3 8 16 1 3-4-2-8-16z" fill="#AE749B"/>
<path transform="translate(370,443)" d="m0 0 1 3-9 16h-3l2-6 8-12z" fill="#B5789B"/>
<path transform="translate(983,722)" d="m0 0 1 3-4 7-4 16-1-4 2-13z" fill="#2EB089"/>
<path transform="translate(486,342)" d="m0 0h1v9l2 1-1 10 1 2-2 1-2 3v-18z" fill="#D0F2FE"/>
<path transform="translate(499,317)" d="m0 0 1 2-1 2 3 1-7 8h-3l1-5z" fill="#B7E7F9"/>
<path transform="translate(600,271)" d="m0 0 2 1v3l-15 5h-2l1-3z" fill="#D08786"/>
<path transform="translate(801,788)" d="m0 0h2l3 3 1 5-1 4h-4l-1-2z" fill="#27AD7E"/>
<path transform="translate(818,643)" d="m0 0 2 1v2h2v10l-1 2h-2l-2-9z" fill="#36B394"/>
<path transform="translate(854,543)" d="m0 0 5 1 2 2h-3v6l-6-1v-5z" fill="#2EAF88"/>
<path transform="translate(843,655)" d="m0 0h7l-4 2-1 2 1 4-9 1 1-3 2-1z" fill="#57A7B7"/>
<path transform="translate(1183,789)" d="m0 0 3 2-2 12-1 4h-2l1-14z" fill="#C27F91"/>
<path transform="translate(438,338)" d="m0 0 2 1-2 2 3 3 14 1v1h-16l-4-2-4 2 6-7z" fill="#A7E0F6"/>
<path transform="translate(794,615)" d="m0 0h4l-1 5-6 1v2h-3l1-4z" fill="#C7EEFD"/>
<path transform="translate(321,774)" d="m0 0 2 1 16 1v2l-4 1h-11l-3-3z" fill="#F99955"/>
<path transform="translate(1189,930)" d="m0 0 1 3-6 12h-3l2-6 4-8z" fill="#BE7D95"/>
<path transform="translate(793,628)" d="m0 0h1v8h-6l-1-4z" fill="#CDF1FE"/>
<path transform="translate(423,287)" d="m0 0h8v2h13v1l-21 1z" fill="#FBFDFD"/>
<path transform="translate(783,917)" d="m0 0 1 4 9-1v3l-15 1z" fill="#C0EBFD"/>
<path transform="translate(1195,915)" d="m0 0 1 4-5 11-3 1 3-9 3-6z" fill="#B6799B"/>
<path transform="translate(329,848)" d="m0 0h2l3 9-1 4-3-3-2-9z" fill="#A06B95"/>
<path transform="translate(888,863)" d="m0 0h2l-2 5-7 7h-5l-2-4 1-5h1l2 7 5-3 4-4z" fill="#57A7B7"/>
<path transform="translate(782,646)" d="m0 0 12 8-4 2-3 1-4-8z" fill="#57A7B7"/>
<path transform="translate(470,353)" d="m0 0 8 2-1 4-8-1z" fill="#F4FBFC"/>
<path transform="translate(647,616)" d="m0 0h2l-1 3-7 4-5 5-2-1 4-5z" fill="#D1F0FC"/>
<path transform="translate(309,610)" d="m0 0h1v13l-2 4h-1v-9l1-7z" fill="#B5789B"/>
<path transform="translate(1215,851)" d="m0 0h2l-1 9-2 6h-2l1-8z" fill="#B3779D"/>
<path transform="translate(818,637)" d="m0 0h3l5 9-1 4-1-5-3 1-3-6z" fill="#90D7F0"/>
<path transform="translate(873,562)" d="m0 0 7 4-4 3v4l2 2h-4l-1-9z" fill="#12A3D9"/>
<path transform="translate(910,693)" d="m0 0 9 3-1 3h-5l-3-3z" fill="#0CA3DD"/>
<path transform="translate(746,525)" d="m0 0h3l-4 16-1 5h-2l2-11z" fill="#94D8F1"/>
<path transform="translate(786,1322)" d="m0 0h2l-1 4-1 14h-1l-1-11-2 1 2-6z" fill="#C8A5BD"/>
<path transform="translate(1182,944)" d="m0 0 1 3-5 9h-3l2-5 3-6z" fill="#B97A98"/>
<path transform="translate(878,859)" d="m0 0 1 4-1 5 1 2 3 2-4 2-2-2v-8z" fill="#36B394"/>
<path transform="translate(315,751)" d="m0 0h1l1 14 2 7-5-5z" fill="#FA9956"/>
<path transform="translate(721,736)" d="m0 0 1 3-2 5-3 2-1-4 2-4z" fill="#D3F4FF"/>
<path transform="translate(776,608)" d="m0 0 2 2h6l1 3h2v2l-8-1-3-3z" fill="#2BA4CD"/>
<path transform="translate(687,586)" d="m0 0 1 3v6l-4 4h-2l3-9z" fill="#FDFEFD"/>
<path transform="translate(491,328)" d="m0 0 1 2 2 1-3 6h-2l-1 2v-7z" fill="#9FDDF4"/>
<path transform="translate(858,546)" d="m0 0 5 1 1 5h-4l-2-3z" fill="#A0DDF4"/>
<path transform="translate(1206,885)" d="m0 0 1 4-3 9h-3l3-10z" fill="#A771A6"/>
<path transform="translate(874,626)" d="m0 0 3 1-1 5-4 1-1-3 1-3z" fill="#1BA268"/>
<path transform="translate(335,508)" d="m0 0 2 3-3 10h-3l3-10z" fill="#B87A99"/>
<path transform="translate(478,355)" d="m0 0h2v7l-6-1-3-3h6z" fill="#BFEBFB"/>
<path transform="translate(826,634)" d="m0 0 5 1 3 6-2 2-6-8z" fill="#90D7F0"/>
<path transform="translate(339,499)" d="m0 0 2 4-3 8h-2l1-7z" fill="#A16B8B"/>
<path transform="translate(772,258)" d="m0 0 6 1v2h-13l-1-2z" fill="#F7964C"/>
<path transform="translate(811,665)" d="m0 0 7 1-1 4-6-1z" fill="#CDF1FE"/>
<path transform="translate(790,612)" d="m0 0h3l-1 4-6 4 1-5z" fill="#57A7B7"/>
<path transform="translate(657,610)" d="m0 0 2 1-4 4-6 2-1-2z" fill="#D7F2FD"/>
<path transform="translate(781,524)" d="m0 0 8 1v2l-8 1z" fill="#C6EEFC"/>
<path transform="translate(466,336)" d="m0 0 7 1 1 2-4-1 4 4-1 2-6-5z" fill="#A1DBED"/>
</svg>
